<svg width="44" height="44" viewBox="0 0 44 44" fill="none" xmlns="http://www.w3.org/2000/svg">
<path d="M22 44C34.1503 44 44 34.1503 44 22C44 9.84974 34.1503 0 22 0C9.84974 0 0 9.84974 0 22C0 34.1503 9.84974 44 22 44Z" fill="#808080"/>
<path d="M19.2 32.5999H23.4V21.9999H26.5L26.9 17.7999H23.5V16.0999C23.4 15.5999 23.8 15.1999 24.2 15.0999C24.3 15.0999 24.3 15.0999 24.4 15.0999H26.8V11.3999H23.5C19.9 11.3999 19.1 14.0999 19.1 15.7999V17.6999H17V21.9999H19.1C19.2 26.7999 19.2 32.5999 19.2 32.5999Z" fill="white"/>
</svg>
