<svg width="44" height="44" viewBox="0 0 44 44" fill="none" xmlns="http://www.w3.org/2000/svg">
<path d="M22 44C34.1503 44 44 34.1503 44 22C44 9.84974 34.1503 0 22 0C9.84974 0 0 9.84974 0 22C0 34.1503 9.84974 44 22 44Z" fill="white"/>
<path d="M27.3 8.80005H16.6C12.3 8.80005 8.70001 12.3 8.70001 16.7V27.4C8.70001 31.7 12.2 35.3 16.6 35.3H27.3C31.6 35.3 35.2 31.8 35.2 27.4V16.7C35.2 12.4 31.7 8.80005 27.3 8.80005ZM32.5 27.4C32.5 30.3 30.2 32.6 27.3 32.6H16.6C13.7 32.6 11.4 30.3 11.4 27.4V16.7C11.4 13.8 13.7 11.5 16.6 11.5H27.3C30.2 11.5 32.5 13.8 32.5 16.7V27.4Z" fill="black"/>
<path d="M22 15.2C18.2 15.2 15.2 18.3 15.2 22C15.2 25.7 18.3 28.8 22 28.8C25.8 28.8 28.8 25.7 28.8 22C28.8 18.3 25.7 15.2 22 15.2ZM22 26.2001C19.7 26.2001 17.8 24.3 17.8 22C17.8 19.7 19.7 17.8 22 17.8C24.3 17.8 26.2 19.7 26.2 22C26.2 24.4 24.3 26.2001 22 26.2001Z" fill="black"/>
<path d="M28.8 16.9C29.6837 16.9 30.4 16.1837 30.4 15.3C30.4 14.4164 29.6837 13.7 28.8 13.7C27.9164 13.7 27.2 14.4164 27.2 15.3C27.2 16.1837 27.9164 16.9 28.8 16.9Z" fill="black"/>
</svg>
