<svg width="70" height="64" viewBox="0 0 70 64" fill="none" xmlns="http://www.w3.org/2000/svg">
<path d="M64.6985 41.9215H57.237C57.237 38.878 57.237 26.115 57.237 24.5442C57.237 24.446 57.237 24.3478 57.237 24.2496C57.237 24.1515 57.237 24.0533 57.237 23.9551C57.1388 21.9916 56.3534 17.4755 53.4081 14.432C50.4628 11.3885 45.6522 8.54137 42.0196 7.65778C39.8597 7.1669 37.4053 6.67602 34.8527 6.67602C33.1837 6.67602 31.5147 6.87237 29.9439 7.26508C25.2314 8.34502 21.5007 9.71949 18.3591 12.8611C15.3156 15.9046 13.8429 17.6718 12.9593 20.8135C12.8612 21.2062 12.763 21.9916 12.6648 23.1697C12.4684 23.8569 12.4684 24.5442 12.4684 25.4278V41.9215H5.30155C5.20337 38.878 4.71249 26.6059 5.30155 23.5624C5.39973 23.1697 5.39973 22.8752 5.4979 22.4825C6.18514 19.3408 6.87238 15.7083 10.1122 11.8794C11.7812 9.81767 14.1375 7.95231 16.7882 6.28331C19.2426 4.81066 21.8934 3.73071 24.446 3.04348C27.3913 2.25806 31.2202 1.37447 35.54 1.37447C37.6999 1.37447 39.7616 1.57083 41.8233 2.06171C47.8121 3.33801 53.1136 5.79243 56.7461 8.93408C60.0841 11.8794 62.9313 16.5919 63.6185 18.2609C64.5021 20.3226 64.6003 25.2314 64.6003 28.864V41.9215H64.6985ZM14.432 20.3226C15.2174 18.1627 16.4937 16.5919 19.1445 13.9411C22.0898 10.9958 25.6241 9.71949 30.0421 8.73773C31.6129 8.34502 33.0856 8.24684 34.6564 8.24684C37.1108 8.24684 39.467 8.73773 41.5288 9.13043C44.9649 9.91585 49.5792 12.6648 52.23 15.5119C53.5063 16.8864 54.2917 18.4572 54.8808 20.028C53.8008 18.6536 52.4264 17.6718 51.0519 17.1809C49.0884 16.4937 46.9285 16.101 44.8668 16.101C43.3941 16.101 41.9215 16.2973 40.7433 16.69C38.3871 17.4755 35.9327 18.7518 34.9509 19.2426C33.7728 18.5554 30.3366 16.5919 26.5077 16.2973C25.3296 16.1992 24.5442 16.1992 23.7588 16.1992C20.8135 16.1992 18.8499 16.8864 16.101 18.7518C15.5119 19.439 14.9229 19.8317 14.432 20.3226ZM47.9102 41.7251V26.9986L47.8121 26.8022C47.7139 26.7041 46.5358 24.2496 43.1978 24.2496H43.0996C41.2342 24.2496 40.1543 25.0351 39.5652 25.7223C38.878 26.4095 38.6816 27.1949 38.5835 27.1949V27.2931V41.7251H31.4166V27.2931C31.4166 25.6241 28.864 24.3478 26.6059 24.2496C26.5077 24.2496 26.5077 24.2496 26.4095 24.2496C25.3296 24.2496 24.2497 24.5442 23.3661 25.0351C22.3843 25.6241 21.7952 26.4095 21.6971 27.2931C21.5989 28.6676 21.6971 38.878 21.6971 41.8233H13.8429V25.4278C13.8429 23.2679 13.8429 22.3843 17.1809 20.1262C19.6353 18.359 21.3044 17.8682 23.9551 17.8682C24.6424 17.8682 25.4278 17.8682 26.5077 17.9663C30.6311 18.2609 34.5582 20.8135 34.5582 20.9116L34.9509 21.2062L35.3436 20.9116C35.3436 20.9116 38.3871 19.1445 41.136 18.2609C42.216 17.8682 43.4923 17.77 44.8668 17.77C46.7321 17.77 48.6956 18.0645 50.561 18.7518C51.8373 19.1445 53.1136 20.2244 54.0954 21.5989C55.0771 22.8752 55.568 24.1515 55.568 24.7405C55.568 26.2132 55.568 38.6816 55.568 41.9215H47.9102V41.7251ZM64.8948 17.6718C64.1094 15.8064 61.1641 10.9958 57.6297 7.85414C53.8008 4.51613 48.3029 1.96353 42.1178 0.687237C40.0561 0.196353 37.798 0 35.54 0C31.122 0 27.0968 0.88359 24.0533 1.669C19.5372 2.84712 13.2539 5.8906 9.03226 10.9958C5.59608 15.2174 4.81067 18.9481 4.12343 22.2861C4.12343 22.5806 4.02525 22.9734 3.92708 23.2679C3.14166 26.9004 3.92708 42.0196 3.92708 42.6087V43.2959H13.7447H23.2679V42.5105C23.2679 42.4123 23.1697 28.7658 23.2679 27.2931C23.2679 26.9986 23.5624 26.6059 24.1515 26.3114C24.8387 25.9186 25.7223 25.7223 26.6059 25.7223C28.4713 25.8205 29.8457 26.8022 29.8457 27.1949V43.1978H39.9579V27.4895C40.1543 27.0968 40.9397 25.7223 43.0014 25.6241H43.0996C45.0631 25.6241 46.0449 26.8022 46.2412 27.1949V43.1978H55.568H65.9747V28.864C66.0729 22.8752 65.6802 19.439 64.8948 17.6718Z" fill="white"/>
<path d="M1.07994 55.3717V56.648H0V51.641C0 51.641 0.687237 51.4446 1.47265 51.4446C2.55259 51.4446 3.23983 52.1318 3.23983 53.4081C3.23983 54.6844 2.55259 55.3717 1.47265 55.3717C1.2763 55.3717 1.07994 55.3717 1.07994 55.3717ZM1.07994 54.2917C1.07994 54.2917 1.17812 54.2917 1.37447 54.2917C1.76718 54.2917 1.96353 54.0954 1.96353 53.4081C1.96353 52.7209 1.76718 52.5246 1.37447 52.5246C1.17812 52.5246 1.07994 52.5246 1.07994 52.5246V54.2917Z" fill="white"/>
<path d="M5.59607 51.3464C6.67601 51.3464 7.46143 52.1318 7.46143 54.0954C7.46143 56.0589 6.67601 56.8443 5.59607 56.8443C4.51613 56.8443 3.73071 56.0589 3.73071 54.0954C3.73071 52.1318 4.51613 51.3464 5.59607 51.3464ZM5.59607 52.4264C5.30154 52.4264 4.90883 52.7209 4.90883 54.0954C4.90883 55.4699 5.20336 55.7644 5.59607 55.7644C5.8906 55.7644 6.28331 55.4699 6.28331 54.0954C6.28331 52.7209 5.8906 52.4264 5.59607 52.4264Z" fill="white"/>
<path d="M9.22862 51.5428L10.2104 54.0954H10.3086V51.5428H11.3885V56.648H10.3086L9.3268 54.0954H9.22862V56.648H8.14868V51.5428H9.22862Z" fill="white"/>
<path d="M13.4502 56.648H12.3703V51.5428H13.4502V56.648Z" fill="white"/>
<path d="M13.9411 51.5428H17.1809V52.6227H16.101V56.648H15.021V52.6227H13.9411V51.5428Z" fill="white"/>
<path d="M20.4208 54.5863L21.108 56.648H19.9299L19.439 55.0771H18.8499V56.648H17.6718V51.641C17.6718 51.641 18.3591 51.4446 19.1445 51.4446C20.2244 51.4446 20.9116 52.1318 20.9116 53.2118C20.9116 54.1936 20.4208 54.5863 20.4208 54.5863ZM18.7518 53.9972H19.0463C19.439 53.9972 19.6353 53.8008 19.6353 53.31C19.6353 52.8191 19.439 52.6227 19.0463 52.6227C18.8499 52.6227 18.7518 52.6227 18.7518 52.6227V53.9972Z" fill="white"/>
<path d="M22.777 56.648H21.5989V51.5428H22.6788V56.648H22.777Z" fill="white"/>
<path d="M24.3478 51.5428H25.9187L26.9986 56.648H25.8205L25.6241 55.6662H24.5442L24.3478 56.648H23.1697L24.3478 51.5428ZM24.8387 54.5863H25.5259L25.2314 53.1136H25.1332L24.8387 54.5863Z" fill="white"/>
<path d="M28.6676 51.5428L29.6494 54.0954H29.7476V51.5428H30.8275V56.648H29.7476L28.7658 54.0954H28.6676V56.648H27.5877V51.5428H28.6676Z" fill="white"/>
<path d="M33.38 52.4264C32.8892 52.4264 32.6928 52.6227 32.6928 53.0154C32.6928 53.8009 34.5582 53.6045 34.5582 55.1753C34.5582 56.1571 33.9691 56.7462 32.9873 56.7462C32.2019 56.7462 31.5147 56.4516 31.5147 56.4516V55.6662H32.6928C33.0855 55.6662 33.38 55.3717 33.38 55.0771C33.38 54.2917 31.5147 54.4881 31.5147 52.9173C31.5147 52.0337 32.1037 51.3464 33.0855 51.3464C33.8709 51.3464 34.3618 51.641 34.3618 51.641V52.4264H33.38Z" fill="white"/>
<path d="M36.7181 54.5863H36.3254V56.648H35.2454V51.5428H36.3254V53.6045H36.7181L37.3071 51.5428H38.4853L37.6998 53.9972L38.5834 56.5498H37.4053L36.7181 54.5863Z" fill="white"/>
<path d="M40.1543 55.568H42.0196V56.648H38.9762V51.5428H41.9215V52.6227H40.0561V53.6045H41.3324V54.5863H40.0561V55.568H40.1543Z" fill="white"/>
<path d="M45.0631 53.6045L44.7686 56.648H43.6887L44.0814 51.5428H45.554L46.2413 54.1936H46.3394L47.0267 51.5428H48.4993L48.892 56.648H47.8121L47.6157 53.6045H47.5176L46.9285 55.8626H45.8485L45.0631 53.6045Z" fill="white"/>
<path d="M50.4628 55.0771C50.4628 55.4699 50.7573 55.7644 51.0519 55.7644C51.3464 55.7644 51.6409 55.4699 51.6409 55.0771V51.5428H52.7209V55.0771C52.7209 56.1571 52.0336 56.8443 51.0519 56.8443C50.0701 56.8443 49.3829 56.1571 49.3829 55.0771V51.5428H50.4628V55.0771ZM50.3646 50.3647L51.5428 49.6774L51.8373 50.4628L50.561 50.8556L50.3646 50.3647Z" fill="white"/>
<path d="M54.6844 55.4699L56.4516 55.568V56.648H53.4081V55.568L55.1753 52.6227V52.5246H53.5063V51.4446H56.5498V52.5246L54.6844 55.4699Z" fill="white"/>
<path d="M58.2188 55.568H60.0841V56.648H57.0406V51.5428H59.986V52.6227H58.1206V53.6045H59.3969V54.5863H58.1206V55.568H58.2188Z" fill="white"/>
<path d="M61.7531 55.0771C61.7531 55.4699 62.0477 55.7644 62.3422 55.7644C62.6367 55.7644 62.9313 55.4699 62.9313 55.0771V51.5428H64.0112V55.0771C64.0112 56.1571 63.324 56.8443 62.3422 56.8443C61.3604 56.8443 60.6732 56.1571 60.6732 55.0771V51.5428H61.7531V55.0771Z" fill="white"/>
<path d="M66.1711 53.6045L65.8766 56.648H64.7966L65.1893 51.5428H66.662L67.3492 54.1936H67.4474L68.1346 51.5428H69.6073L70 56.648H68.7237L68.5273 53.6045H68.4292L67.8401 55.8626H66.7602L66.1711 53.6045Z" fill="white"/>
<path d="M27.5876 58.317L26.5077 63.4222H24.9369L23.8569 58.317H25.0351L25.7223 61.9495H25.8205L26.5077 58.317H27.5876Z" fill="white"/>
<path d="M30.3365 58.317L31.3183 60.8696H31.4165V58.317H32.4964V63.4222H31.4165L30.4347 60.8696H30.3365V63.4222H29.2566V58.317H30.3365Z" fill="white"/>
<path d="M34.5582 63.4222H33.4783V58.317H34.5582V63.4222Z" fill="white"/>
<path d="M35.0491 58.317H38.2889V59.3969H37.209V63.4222H36.129V59.3969H35.0491V58.317Z" fill="white"/>
<path d="M41.5288 61.3605L42.216 63.4222H41.0379L40.4488 61.8513H39.8598V63.4222H38.7798V58.4152C38.7798 58.4152 39.4671 58.2188 40.2525 58.2188C41.3324 58.2188 42.0196 58.906 42.0196 59.986C42.0196 61.0659 41.5288 61.3605 41.5288 61.3605ZM39.8598 60.7714H40.2525C40.6452 60.7714 40.8415 60.5751 40.8415 60.0842C40.8415 59.5933 40.6452 59.3969 40.2525 59.3969C40.0561 59.3969 39.9579 59.3969 39.9579 59.3969V60.7714H39.8598Z" fill="white"/>
<path d="M43.7868 62.3422H45.6521V63.4222H42.6087V58.317H45.554V59.3969H43.6886V60.3787H45.1613V61.3605H43.885V62.3422H43.7868Z" fill="white"/>
</svg>
