<svg width="94" height="58" viewBox="0 0 94 58" fill="none" xmlns="http://www.w3.org/2000/svg">
<path d="M76.1204 41.9215H68.659C68.659 38.878 68.659 26.115 68.659 24.5442C68.659 24.446 68.659 24.3478 68.659 24.2496C68.659 24.1515 68.659 24.0533 68.659 23.9551C68.5608 21.9916 67.7754 17.4755 64.8301 14.432C61.8848 11.3885 57.0742 8.54137 53.4416 7.65778C51.2817 7.1669 48.8273 6.67602 46.2747 6.67602C44.6057 6.67602 42.9367 6.87237 41.3659 7.26508C36.6534 8.34502 32.9227 9.71949 29.781 12.8611C26.7376 15.9046 25.2649 17.6718 24.3813 20.8135C24.2832 21.2062 24.185 21.9916 24.0868 23.1697C23.8904 23.8569 23.8904 24.5442 23.8904 25.4278V41.9215H16.7235C16.6254 38.878 16.1345 26.6059 16.7235 23.5624C16.8217 23.1697 16.8217 22.8752 16.9199 22.4825C17.6071 19.3408 18.2944 15.7083 21.5342 11.8794C23.2032 9.81767 25.5594 7.95231 28.2102 6.28331C30.6646 4.81066 33.3154 3.73071 35.868 3.04348C38.8133 2.25806 42.6422 1.37447 46.962 1.37447C49.1219 1.37447 51.1836 1.57083 53.2453 2.06171C59.2341 3.33801 64.5356 5.79243 68.1681 8.93408C71.5061 11.8794 74.3533 16.5919 75.0405 18.2609C75.9241 20.3226 76.0223 25.2314 76.0223 28.864V41.9215H76.1204ZM25.854 20.3226C26.6394 18.1627 27.9157 16.5919 30.5665 13.9411C33.5118 10.9958 37.0461 9.71949 41.4641 8.73773C43.0349 8.34502 44.5076 8.24684 46.0784 8.24684C48.5328 8.24684 50.889 8.73773 52.9507 9.13043C56.3869 9.91585 61.0012 12.6648 63.652 15.5119C64.9283 16.8864 65.7137 18.4572 66.3028 20.028C65.2228 18.6536 63.8484 17.6718 62.4739 17.1809C60.5104 16.4937 58.3505 16.101 56.2888 16.101C54.8161 16.101 53.3435 16.2973 52.1653 16.69C49.8091 17.4755 47.3547 18.7518 46.3729 19.2426C45.1948 18.5554 41.7586 16.5919 37.9297 16.2973C36.7516 16.1992 35.9662 16.1992 35.1808 16.1992C32.2355 16.1992 30.2719 16.8864 27.523 18.7518C26.9339 19.439 26.3449 19.8317 25.854 20.3226ZM59.3322 41.7251V26.9986L59.2341 26.8022C59.1359 26.7041 57.9578 24.2496 54.6198 24.2496H54.5216C52.6562 24.2496 51.5763 25.0351 50.9872 25.7223C50.3 26.4095 50.1036 27.1949 50.0054 27.1949V27.2931V41.7251H42.8385V27.2931C42.8385 25.6241 40.286 24.3478 38.0279 24.2496C37.9297 24.2496 37.9297 24.2496 37.8315 24.2496C36.7516 24.2496 35.6716 24.5442 34.7881 25.0351C33.8063 25.6241 33.2172 26.4095 33.1191 27.2931C33.0209 28.6676 33.1191 38.878 33.1191 41.8233H25.2649V25.4278C25.2649 23.2679 25.2649 22.3843 28.6029 20.1262C31.0573 18.359 32.7263 17.8682 35.3771 17.8682C36.0644 17.8682 36.8498 17.8682 37.9297 17.9663C42.0531 18.2609 45.9802 20.8135 45.9802 20.9116L46.3729 21.2062L46.7656 20.9116C46.7656 20.9116 49.8091 19.1445 52.558 18.2609C53.638 17.8682 54.9143 17.77 56.2888 17.77C58.1541 17.77 60.1176 18.0645 61.983 18.7518C63.2593 19.1445 64.5356 20.2244 65.5174 21.5989C66.4991 22.8752 66.99 24.1515 66.99 24.7405C66.99 26.2132 66.99 38.6816 66.99 41.9215H59.3322V41.7251ZM76.3168 17.6718C75.5314 15.8064 72.5861 10.9958 69.0517 7.85414C65.2228 4.51613 59.7249 1.96353 53.5398 0.687237C51.4781 0.196353 49.22 0 46.962 0C42.544 0 38.5188 0.88359 35.4753 1.669C30.9592 2.84712 24.6759 5.8906 20.4543 10.9958C17.0181 15.2174 16.2327 18.9481 15.5454 22.2861C15.5454 22.5806 15.4472 22.9734 15.3491 23.2679C14.5637 26.9004 15.3491 42.0196 15.3491 42.6087V43.2959H25.1667H34.6899V42.5105C34.6899 42.4123 34.5917 28.7658 34.6899 27.2931C34.6899 26.9986 34.9844 26.6059 35.5735 26.3114C36.2607 25.9186 37.1443 25.7223 38.0279 25.7223C39.8932 25.8205 41.2677 26.8022 41.2677 27.1949V43.1978H51.3799V27.4895C51.5763 27.0968 52.3617 25.7223 54.4234 25.6241H54.5216C56.4851 25.6241 57.4669 26.8022 57.6632 27.1949V43.1978H66.99H77.3967V28.864C77.4949 22.8752 77.1022 19.439 76.3168 17.6718Z" fill="white"/>
<path d="M1.07994 55.6942V56.9705H0V51.9634C0 51.9634 0.687237 51.7671 1.47265 51.7671C2.55259 51.7671 3.23983 52.4543 3.23983 53.7306C3.23983 55.0069 2.55259 55.6942 1.47265 55.6942C1.2763 55.6942 1.07994 55.6942 1.07994 55.6942ZM1.07994 54.6142C1.07994 54.6142 1.17812 54.6142 1.37447 54.6142C1.76718 54.6142 1.96353 54.4179 1.96353 53.7306C1.96353 53.0434 1.76718 52.847 1.37447 52.847C1.17812 52.847 1.07994 52.847 1.07994 52.847V54.6142Z" fill="white"/>
<path d="M5.59607 51.6689C6.67601 51.6689 7.46143 52.4544 7.46143 54.4179C7.46143 56.3814 6.67601 57.1668 5.59607 57.1668C4.51613 57.1668 3.73071 56.3814 3.73071 54.4179C3.73071 52.4544 4.51613 51.6689 5.59607 51.6689ZM5.59607 52.7489C5.30154 52.7489 4.90883 53.0434 4.90883 54.4179C4.90883 55.7924 5.20336 56.0869 5.59607 56.0869C5.8906 56.0869 6.28331 55.7924 6.28331 54.4179C6.28331 53.0434 5.8906 52.7489 5.59607 52.7489Z" fill="white"/>
<path d="M9.22862 51.8652L10.2104 54.4178H10.3086V51.8652H11.3885V56.9704H10.3086L9.3268 54.4178H9.22862V56.9704H8.14868V51.8652H9.22862Z" fill="white"/>
<path d="M13.4502 56.9704H12.3703V51.8652H13.4502V56.9704Z" fill="white"/>
<path d="M13.9411 51.8652H17.1809V52.9452H16.101V56.9704H15.021V52.9452H13.9411V51.8652Z" fill="white"/>
<path d="M20.4208 54.9087L21.108 56.9705H19.9299L19.439 55.3996H18.8499V56.9705H17.6718V51.9634C17.6718 51.9634 18.3591 51.7671 19.1445 51.7671C20.2244 51.7671 20.9116 52.4543 20.9116 53.5343C20.9116 54.516 20.4208 54.9087 20.4208 54.9087ZM18.7518 54.3197H19.0463C19.439 54.3197 19.6353 54.1233 19.6353 53.6324C19.6353 53.1416 19.439 52.9452 19.0463 52.9452C18.8499 52.9452 18.7518 52.9452 18.7518 52.9452V54.3197Z" fill="white"/>
<path d="M22.777 56.9704H21.5989V51.8652H22.6788V56.9704H22.777Z" fill="white"/>
<path d="M24.3478 51.8652H25.9187L26.9986 56.9704H25.8205L25.6241 55.9887H24.5442L24.3478 56.9704H23.1697L24.3478 51.8652ZM24.8387 54.9087H25.5259L25.2314 53.4361H25.1332L24.8387 54.9087Z" fill="white"/>
<path d="M28.6676 51.8652L29.6494 54.4178H29.7476V51.8652H30.8275V56.9704H29.7476L28.7658 54.4178H28.6676V56.9704H27.5877V51.8652H28.6676Z" fill="white"/>
<path d="M33.38 52.7489C32.8892 52.7489 32.6928 52.9452 32.6928 53.338C32.6928 54.1234 34.5582 53.927 34.5582 55.4978C34.5582 56.4796 33.9691 57.0687 32.9873 57.0687C32.2019 57.0687 31.5147 56.7741 31.5147 56.7741V55.9887H32.6928C33.0855 55.9887 33.38 55.6942 33.38 55.3997C33.38 54.6142 31.5147 54.8106 31.5147 53.2398C31.5147 52.3562 32.1037 51.6689 33.0855 51.6689C33.8709 51.6689 34.3618 51.9635 34.3618 51.9635V52.7489H33.38Z" fill="white"/>
<path d="M36.7181 54.9087H36.3254V56.9704H35.2454V51.8652H36.3254V53.9269H36.7181L37.3071 51.8652H38.4853L37.6998 54.3197L38.5834 56.8722H37.4053L36.7181 54.9087Z" fill="white"/>
<path d="M40.1543 55.8905H42.0196V56.9704H38.9762V51.8652H41.9215V52.9452H40.0561V53.9269H41.3324V54.9087H40.0561V55.8905H40.1543Z" fill="white"/>
<path d="M45.0631 53.9269L44.7686 56.9704H43.6887L44.0814 51.8652H45.554L46.2413 54.516H46.3394L47.0267 51.8652H48.4993L48.892 56.9704H47.8121L47.6157 53.9269H47.5176L46.9285 56.185H45.8485L45.0631 53.9269Z" fill="white"/>
<path d="M50.4628 55.3997C50.4628 55.7924 50.7573 56.087 51.0519 56.087C51.3464 56.087 51.6409 55.7924 51.6409 55.3997V51.8654H52.7209V55.3997C52.7209 56.4797 52.0336 57.1669 51.0519 57.1669C50.0701 57.1669 49.3829 56.4797 49.3829 55.3997V51.8654H50.4628V55.3997ZM50.3646 50.6872L51.5428 50L51.8373 50.7854L50.561 51.1781L50.3646 50.6872Z" fill="white"/>
<path d="M54.6844 55.7923L56.4516 55.8905V56.9705H53.4081V55.8905L55.1753 52.9452V52.847H53.5063V51.7671H56.5498V52.847L54.6844 55.7923Z" fill="white"/>
<path d="M58.2188 55.8905H60.0841V56.9704H57.0406V51.8652H59.986V52.9452H58.1206V53.9269H59.3969V54.9087H58.1206V55.8905H58.2188Z" fill="white"/>
<path d="M61.7531 55.3996C61.7531 55.7923 62.0477 56.0868 62.3422 56.0868C62.6367 56.0868 62.9313 55.7923 62.9313 55.3996V51.8652H64.0112V55.3996C64.0112 56.4795 63.324 57.1668 62.3422 57.1668C61.3604 57.1668 60.6732 56.4795 60.6732 55.3996V51.8652H61.7531V55.3996Z" fill="white"/>
<path d="M66.3745 54.0617L66.0799 57.1052H65L65.3927 52H66.8654L67.5526 54.6508H67.6508L68.338 52H69.8107L70.2034 57.1052H68.9271L68.7307 54.0617H68.6325L68.0435 56.3198H66.9635L66.3745 54.0617Z" fill="white"/>
<path d="M75.7307 52.0981L74.6508 57.2033H73.0799L72 52.0981H73.1781L73.8654 55.7307H73.9635L74.6508 52.0981H75.7307Z" fill="white"/>
<path d="M78.4796 52.0981L79.4614 54.6507H79.5595V52.0981H80.6395V57.2033H79.5595L78.5778 54.6507H78.4796V57.2033H77.3997V52.0981H78.4796Z" fill="white"/>
<path d="M82.7013 57.2033H81.6213V52.0981H82.7013V57.2033Z" fill="white"/>
<path d="M83.1922 52.0981H86.432V53.1781H85.3521V57.2033H84.2721V53.1781H83.1922V52.0981Z" fill="white"/>
<path d="M89.6718 55.1417L90.3591 57.2034H89.1809L88.5919 55.6325H88.0028V57.2034H86.9229V52.1964C86.9229 52.1964 87.6101 52 88.3955 52C89.4755 52 90.1627 52.6872 90.1627 53.7672C90.1627 54.8471 89.6718 55.1417 89.6718 55.1417ZM88.0028 54.5526H88.3955C88.7882 54.5526 88.9846 54.3562 88.9846 53.8654C88.9846 53.3745 88.7882 53.1781 88.3955 53.1781C88.1992 53.1781 88.101 53.1781 88.101 53.1781V54.5526H88.0028Z" fill="white"/>
<path d="M91.9299 56.1234H93.7952V57.2033H90.7517V52.0981H93.697V53.1781H91.8317V54.1599H93.3043V55.1416H92.028V56.1234H91.9299Z" fill="white"/>
</svg>
