<?xml version="1.0" encoding="utf-8"?>
<!-- Generator: Adobe Illustrator 25.0.1, SVG Export Plug-In . SVG Version: 6.00 Build 0)  -->
<svg version="1.1" id="Layer_1" xmlns="http://www.w3.org/2000/svg" xmlns:xlink="http://www.w3.org/1999/xlink" x="0px" y="0px"
	 viewBox="0 0 140 126" style="enable-background:new 0 0 140 126;" xml:space="preserve">
<style type="text/css">
	.st0{fill:#FFFFFF;}
</style>
<g>
	<path class="st0" d="M7,101.8c0,0.4-0.1,0.8-0.2,1.1c-0.1,0.3-0.3,0.6-0.5,0.7c-0.2,0.2-0.5,0.3-0.7,0.4c-0.3,0.1-0.5,0.1-0.8,0.1
		H4v2.7H2.4v-7.5h2.3c0.3,0,0.5,0,0.8,0.1s0.5,0.2,0.7,0.4c0.2,0.2,0.4,0.4,0.5,0.7C6.9,101,7,101.4,7,101.8z M5.4,101.9
		c0-0.3-0.1-0.6-0.2-0.7C5,101.1,4.8,101,4.6,101H4v2h0.5c0.2,0,0.4-0.1,0.6-0.3C5.3,102.4,5.4,102.2,5.4,101.9z"/>
	<path class="st0" d="M13.3,103.2c0,0.6-0.1,1.1-0.2,1.6s-0.3,0.9-0.6,1.3c-0.2,0.3-0.5,0.6-0.9,0.8s-0.8,0.3-1.2,0.3
		s-0.8-0.1-1.2-0.3s-0.7-0.5-0.9-0.8s-0.4-0.8-0.6-1.3s-0.2-1-0.2-1.6s0.1-1.1,0.2-1.6s0.3-0.9,0.6-1.2c0.2-0.3,0.5-0.6,0.9-0.8
		s0.8-0.3,1.2-0.3s0.8,0.1,1.2,0.3s0.7,0.5,0.9,0.8s0.4,0.8,0.6,1.2C13.3,102.1,13.3,102.6,13.3,103.2z M11.6,103.2
		c0-0.3,0-0.6-0.1-0.9c0-0.3-0.1-0.5-0.2-0.7c-0.1-0.2-0.2-0.4-0.4-0.5s-0.3-0.2-0.5-0.2s-0.4,0.1-0.5,0.2s-0.3,0.3-0.4,0.5
		c-0.1,0.2-0.2,0.4-0.2,0.7c0,0.3-0.1,0.6-0.1,0.9s0,0.6,0.1,0.9c0,0.3,0.1,0.5,0.2,0.7c0.1,0.2,0.2,0.4,0.4,0.5s0.3,0.2,0.5,0.2
		s0.4-0.1,0.5-0.2s0.3-0.3,0.4-0.5c0.1-0.2,0.2-0.4,0.2-0.7C11.6,103.8,11.6,103.5,11.6,103.2z"/>
	<path class="st0" d="M17.6,107l-1.7-4.6l0,0v4.6h-1.5v-7.5h1.9l1.7,4.6l0,0v-4.6h1.5v7.5H17.6z"/>
	<path class="st0" d="M20.7,107v-7.5h1.7v7.5H20.7z"/>
	<path class="st0" d="M26.1,100.9v6h-1.7v-6H23v-1.4h4.4v1.4H26.1z"/>
	<path class="st0" d="M31.2,107l-1-3h-0.5v3h-1.6v-7.5h2.4c0.7,0,1.3,0.2,1.7,0.6s0.6,0.9,0.6,1.7c0,0.3,0,0.5-0.1,0.7
		s-0.1,0.4-0.2,0.6c-0.1,0.2-0.2,0.3-0.3,0.4s-0.2,0.2-0.4,0.2L33,107H31.2z M31.1,101.8c0-0.2,0-0.3-0.1-0.5
		c-0.1-0.1-0.1-0.2-0.2-0.3c-0.1-0.1-0.2-0.1-0.3-0.1c-0.1,0-0.2,0-0.3,0h-0.5v1.9h0.5c0.2,0,0.4-0.1,0.6-0.2S31.1,102.2,31.1,101.8
		z"/>
	<path class="st0" d="M33.8,107v-7.5h1.7v7.5H33.8z"/>
	<path class="st0" d="M40.2,107l-0.3-1.4h-1.7l-0.3,1.4h-1.7l1.8-7.5h2.1l1.8,7.5H40.2z M39.1,101.1L39.1,101.1l-0.7,3.2h1.3
		L39.1,101.1z"/>
	<path class="st0" d="M45.8,107l-1.7-4.6l0,0v4.6h-1.5v-7.5h1.9l1.7,4.6l0,0v-4.6h1.5v7.5H45.8z"/>
	<path class="st0" d="M52.1,101.3c-0.1-0.1-0.3-0.3-0.4-0.3c-0.2-0.1-0.3-0.1-0.5-0.1s-0.4,0.1-0.5,0.2c-0.2,0.1-0.2,0.3-0.2,0.6
		c0,0.2,0.1,0.4,0.2,0.5c0.2,0.1,0.4,0.3,0.7,0.4c0.2,0.1,0.3,0.2,0.5,0.3s0.4,0.3,0.5,0.4c0.2,0.2,0.3,0.4,0.4,0.6s0.2,0.5,0.2,0.8
		c0,0.4-0.1,0.8-0.2,1.1s-0.3,0.6-0.5,0.8c-0.2,0.2-0.5,0.4-0.7,0.5c-0.3,0.1-0.6,0.2-0.9,0.2c-0.5,0-0.9-0.1-1.2-0.3
		c-0.4-0.2-0.7-0.4-0.9-0.6l0.9-1.3c0.2,0.2,0.3,0.3,0.6,0.4c0.2,0.1,0.4,0.2,0.6,0.2c0.2,0,0.4-0.1,0.5-0.2s0.2-0.3,0.2-0.6
		c0-0.2-0.1-0.4-0.3-0.6c-0.2-0.1-0.4-0.3-0.7-0.5c-0.2-0.1-0.4-0.2-0.6-0.3s-0.3-0.3-0.5-0.4c-0.1-0.2-0.2-0.4-0.3-0.6
		s-0.1-0.5-0.1-0.8c0-0.4,0.1-0.8,0.2-1.1c0.1-0.3,0.3-0.5,0.5-0.7s0.5-0.3,0.7-0.4c0.3-0.1,0.5-0.1,0.8-0.1c0.4,0,0.8,0.1,1.1,0.2
		s0.6,0.3,0.8,0.5L52.1,101.3z"/>
	<path class="st0" d="M57.2,107l-1.6-3.5l0,0v3.5h-1.7v-7.5h1.7v3.1l0,0l1.5-3.1H59l-1.9,3.4l2,4.1H57.2z"/>
	<path class="st0" d="M59.8,107v-7.5h3.6v1.5h-2v1.5h1.8v1.4h-1.8v1.6h2.1v1.5H59.8z"/>
	<path class="st0" d="M71.8,107l0.1-5.1l0,0l-1.3,5.1h-1.2l-1.2-5.1l0,0l0.1,5.1h-1.5v-7.5h2.1l1.2,4.8l0,0l1.2-4.8h2.3v7.5H71.8z"
		/>
	<path class="st0" d="M79.7,104.2c0,0.4,0,0.8-0.1,1.2c-0.1,0.4-0.2,0.7-0.4,0.9s-0.5,0.5-0.8,0.6c-0.3,0.2-0.7,0.2-1.2,0.2
		s-0.8-0.1-1.2-0.2c-0.3-0.2-0.6-0.4-0.8-0.6c-0.2-0.3-0.3-0.6-0.4-0.9c-0.1-0.4-0.1-0.7-0.1-1.2v-4.7h1.7v4.6c0,0.2,0,0.4,0,0.6
		s0.1,0.3,0.1,0.5s0.1,0.2,0.3,0.3s0.2,0.1,0.4,0.1s0.3,0,0.4-0.1s0.2-0.2,0.3-0.3s0.1-0.3,0.1-0.5s0-0.4,0-0.6v-4.6h1.7V104.2z
		 M77.6,98.9h-1.1l1-1.5h1.4L77.6,98.9z"/>
	<path class="st0" d="M80.5,107v-1.4l2.3-4.6h-2.1v-1.5h4v1.3l-2.3,4.6h2.3v1.5L80.5,107L80.5,107z"/>
	<path class="st0" d="M85.8,107v-7.5h3.6v1.5h-2v1.5h1.8v1.4h-1.8v1.6h2.1v1.5H85.8z"/>
	<path class="st0" d="M95.3,105.4c-0.1,0.4-0.2,0.7-0.4,0.9s-0.5,0.5-0.8,0.6c-0.3,0.2-0.7,0.2-1.2,0.2s-0.8-0.1-1.2-0.2
		c-0.3-0.2-0.6-0.4-0.8-0.6c-0.2-0.3-0.3-0.6-0.4-0.9c-0.1-0.4-0.1-0.7-0.1-1.2v-4.7h1.7v4.6c0,0.2,0,0.4,0,0.6s0.1,0.3,0.1,0.5
		s0.1,0.2,0.3,0.3s0.2,0.1,0.4,0.1s0.3,0,0.4-0.1s0.2-0.2,0.3-0.3s0.1-0.3,0.1-0.5s0-0.4,0-0.6v-4.6h1.7v4.7
		C95.4,104.6,95.4,105,95.3,105.4z"/>
	<path class="st0" d="M101.8,107l0.1-5.1l0,0l-1.3,5.1h-1.2l-1.2-5.1l0,0l0.1,5.1h-1.5v-7.5h2.1l1.2,4.8l0,0l1.2-4.8h2.3v7.5H101.8z
		"/>
	<path class="st0" d="M110,107h-2.1l-1.8-7.5h1.9l1,5.5l0,0l1-5.5h1.8L110,107z"/>
	<path class="st0" d="M117.6,107l-1.7-4.6l0,0v4.6h-1.5v-7.5h1.9l1.7,4.6l0,0v-4.6h1.5v7.5H117.6z"/>
	<path class="st0" d="M120.8,107v-7.5h1.7v7.5H120.8z"/>
	<path class="st0" d="M126.2,100.9v6h-1.7v-6h-1.4v-1.4h4.4v1.4H126.2z"/>
	<path class="st0" d="M131.3,107l-1-3h-0.5v3h-1.6v-7.5h2.4c0.7,0,1.3,0.2,1.7,0.6s0.6,0.9,0.6,1.7c0,0.3,0,0.5-0.1,0.7
		s-0.1,0.4-0.2,0.6c-0.1,0.2-0.2,0.3-0.3,0.4s-0.2,0.2-0.4,0.2l1.3,3.3C133.2,107,131.3,107,131.3,107z M131.2,101.8
		c0-0.2,0-0.3-0.1-0.5c-0.1-0.1-0.1-0.2-0.2-0.3c-0.1-0.1-0.2-0.1-0.3-0.1s-0.2,0-0.3,0h-0.5v1.9h0.5c0.2,0,0.4-0.1,0.6-0.2
		S131.2,102.2,131.2,101.8z"/>
	<path class="st0" d="M133.9,107v-7.5h3.6v1.5h-2v1.5h1.8v1.4h-1.8v1.6h2.1v1.5H133.9z"/>
</g>
<path class="st0" d="M69.8,16.8c-26.5,0-48.1,21.6-48.1,48.1v24.5v2h2h11.7l0,0h2l0,0h11.7h2v-2V66.3c0.1-2.8,1.8-4.1,5.3-4.1
	s5.2,1.3,5.3,4v23.2v2h2h11.7h2v-2V66.3c0.1-2.8,1.8-4.1,5.3-4.1s5.2,1.3,5.3,4v23.2v2h2h11.7h0.1h1.9h0.1h11.7h2v-2V64.9
	C117.9,38.4,96.3,16.8,69.8,16.8z M102.1,89.4H90.3V66.2c-0.1-2.2-1.1-5.9-7.3-5.9c-6.2,0-7.3,3.8-7.3,6v23.2H63.9V66.2
	c-0.1-2.2-1.1-5.9-7.3-5.9s-7.3,3.8-7.3,6v23.2H37.5V65.1c0.5-7.1,5.7-16.7,19-16.7c5.9,0,10.2,1.9,13.2,4.6c3-2.7,7.3-4.6,13.2-4.6
	c14,0,19.1,10.6,19.1,17.7v23.3H102.1z M39.2,54.7c4.3-12.8,16.4-22.1,30.7-22.1c14.4,0,26.7,9.5,30.8,22.6
	c-3.2-4.8-8.8-8.7-17.7-8.7c-5.2,0-9.6,1.3-13.2,4c-3.6-2.7-8-4-13.2-4C47.9,46.5,42.4,50.1,39.2,54.7z M115.9,89.4h-11.7V64.9
	c0-18.9-15.4-34.3-34.3-34.3S35.6,46,35.6,64.9v0.2c0,0.4,0,0.7,0,1.1v23.2H23.8V64.9c0-25.4,20.7-46.1,46.1-46.1S116,39.5,116,64.9
	L115.9,89.4L115.9,89.4z"/>
</svg>
